<svg width="255" height="86" viewBox="0 0 255 86" fill="none" xmlns="http://www.w3.org/2000/svg">
<g clip-path="url(#clip0_1749_65)">
<g filter="url(#filter0_n_1749_65)">
<g filter="url(#filter1_d_1749_65)">
<g filter="url(#filter2_i_1749_65)">
<path d="M10.5695 32.8074L7.67102 32.3243V29.7231H16.9983L27.2546 45.5535L29.3356 50.0127V32.8074L26.1769 32.3243V29.7231H35.69V32.3243L32.8658 32.8074V57.3334H27.4032L16.5152 40.351L14.0626 35.4458V54.472L18.0016 54.8808V57.3334H7.67102V54.8808L10.5695 54.472V32.8074ZM54.593 57.705C53.7012 57.705 53.0572 57.5192 52.6607 57.1476C52.2644 56.7513 52.0661 56.1814 52.0661 55.4382V54.6206C51.4715 55.4382 50.5797 56.1689 49.3906 56.8131C48.2014 57.4324 47.0001 57.7421 45.786 57.7421C43.3583 57.7421 41.624 57.1476 40.5835 55.9584C39.568 54.7446 39.0599 52.7255 39.0599 49.9013V39.5706L37.3134 39.0876V36.7093L44.2996 36.2262H44.3367L45.1543 36.7464V50.0499C45.1543 51.6603 45.3525 52.7873 45.7488 53.4315C46.1454 54.0508 46.8514 54.3605 47.867 54.3605C49.2544 54.3605 50.4188 53.8899 51.3601 52.9484V39.5706L49.0561 39.0132V36.7093L56.4139 36.2262H56.5254L57.4172 36.7464V54.7693H59.3867V57.1476C58.5445 57.3209 57.7641 57.4573 57.0456 57.5563C56.352 57.6553 55.5345 57.705 54.593 57.705ZM66.3936 54.249C66.5669 54.5216 66.9635 54.7693 67.5827 54.9922C68.2269 55.2152 68.8709 55.3267 69.5151 55.3267C70.5309 55.3267 71.2988 55.1162 71.819 54.695C72.364 54.249 72.6365 53.6792 72.6365 52.9856C72.6365 52.2424 72.2896 51.6353 71.5961 51.1647C70.9025 50.6692 69.7627 50.0746 68.1773 49.381L66.7652 48.7493C65.1548 48.0308 63.941 47.1639 63.1235 46.1481C62.3306 45.1076 61.9343 43.7945 61.9343 42.209C61.9343 41.0695 62.2688 40.0537 62.9377 39.1619C63.6065 38.2453 64.5727 37.5268 65.8362 37.0066C67.0996 36.4863 68.5861 36.2262 70.2954 36.2262C71.4846 36.2262 72.5126 36.3005 73.3798 36.4492C74.2469 36.5978 75.1263 36.7836 76.0182 37.0066C76.6127 37.1799 77.0586 37.2792 77.3559 37.3039V42.3577H74.0486L73.0825 39.4963C72.9585 39.2734 72.6612 39.0751 72.1906 38.9018C71.72 38.7035 71.1873 38.6045 70.5927 38.6045C69.6512 38.6045 68.908 38.815 68.3631 39.2362C67.8182 39.6325 67.5456 40.1777 67.5456 40.8713C67.5456 41.6641 67.8553 42.2958 68.4746 42.7664C69.0938 43.2124 70.085 43.7451 71.4474 44.3643L72.2278 44.6988C74.2345 45.541 75.8077 46.4578 76.9472 47.4487C78.0867 48.4148 78.6565 49.7526 78.6565 51.462C78.6565 53.2953 77.9258 54.8064 76.4641 55.9956C75.0023 57.16 72.847 57.7421 69.9981 57.7421C68.6851 57.7421 67.5209 57.6306 66.5051 57.4077C65.4893 57.2094 64.3744 56.9371 63.1606 56.5901L61.9343 56.2557V51.3134H65.4646L66.3936 54.249ZM80.861 51.3877C80.861 49.2077 81.9633 47.5355 84.1682 46.371C86.3979 45.2066 89.3211 44.612 92.9381 44.5873V43.8441C92.9381 42.9522 92.8388 42.2462 92.6408 41.726C92.4426 41.2057 92.0834 40.8216 91.5632 40.574C91.0429 40.3014 90.2748 40.1652 89.2592 40.1652C88.0451 40.1652 86.9553 40.3139 85.9891 40.6111C85.0476 40.8837 84.0568 41.2553 83.0163 41.726L81.7528 39.0504C82.1491 38.7284 82.7933 38.3443 83.6852 37.8984C84.577 37.4278 85.6422 37.0313 86.881 36.7093C88.1444 36.3624 89.4572 36.189 90.82 36.189C92.8017 36.189 94.3502 36.4492 95.465 36.9694C96.6045 37.4897 97.4096 38.2947 97.8804 39.3848C98.3757 40.475 98.6237 41.9614 98.6237 43.8441V54.8808H100.556V57.2219C99.9861 57.3458 99.1933 57.4695 98.1777 57.5935C97.1619 57.7174 96.2948 57.7793 95.5765 57.7793C94.635 57.7793 94.0033 57.6431 93.6813 57.3705C93.384 57.0979 93.2354 56.553 93.2354 55.7355V54.8808C92.6159 55.624 91.7861 56.2929 90.7456 56.8874C89.7051 57.4573 88.5035 57.7421 87.1411 57.7421C85.9766 57.7421 84.9114 57.4945 83.9453 56.9989C83.0038 56.4787 82.2481 55.7479 81.6785 54.8064C81.1333 53.8403 80.861 52.7008 80.861 51.3877ZM90.0396 54.3234C90.4855 54.3234 90.9808 54.1994 91.526 53.9518C92.0709 53.6792 92.5416 53.3572 92.9381 52.9856V47.0771C91.0058 47.0771 89.5687 47.424 88.6275 48.1176C87.7107 48.8111 87.2526 49.703 87.2526 50.7931C87.2526 51.9079 87.5002 52.7751 87.9958 53.3943C88.4911 54.0136 89.1724 54.3234 90.0396 54.3234ZM139.449 64.2824C137.888 64.2824 136.451 63.9479 135.138 63.279C133.85 62.6101 132.351 61.644 130.642 60.3805C129.552 59.563 128.66 58.9313 127.966 58.4853C127.297 58.0641 126.604 57.7296 125.885 57.482C124.845 57.6553 123.916 57.7421 123.098 57.7421C118.936 57.7421 115.852 56.4911 113.845 53.9889C111.838 51.462 110.835 47.9936 110.835 43.584C110.835 40.7351 111.355 38.2453 112.396 36.1147C113.461 33.9594 114.947 32.2997 116.855 31.1352C118.787 29.9708 121.03 29.3887 123.581 29.3887C127.842 29.3887 130.976 30.5778 132.983 32.9561C135.014 35.3097 136.03 38.6788 136.03 43.0637C136.03 46.0862 135.448 48.7368 134.283 51.0161C133.119 53.2953 131.496 55.0169 129.415 56.1814C130.258 56.33 131.112 56.5902 131.979 56.9618C132.847 57.3087 133.899 57.7793 135.138 58.3739C136.699 59.1171 137.95 59.662 138.891 60.0089C139.833 60.3558 140.749 60.5292 141.641 60.5292C142.583 60.5292 143.239 60.4673 143.611 60.3434L144.168 62.0899C143.524 62.8827 142.843 63.4402 142.124 63.7621C141.431 64.109 140.539 64.2824 139.449 64.2824ZM123.395 55.2524C125.154 55.2524 126.529 54.2119 127.52 52.1309C128.511 50.0499 129.007 47.0399 129.007 43.1009C129.007 39.1372 128.536 36.2758 127.594 34.5168C126.653 32.7331 125.278 31.8413 123.47 31.8413C121.686 31.8413 120.299 32.8199 119.308 34.7769C118.342 36.734 117.858 39.6574 117.858 43.5468C117.858 47.5105 118.329 50.4587 119.271 52.391C120.237 54.2987 121.612 55.2524 123.395 55.2524ZM155.369 57.705C154.477 57.705 153.833 57.5192 153.437 57.1476C153.04 56.7513 152.842 56.1814 152.842 55.4382V54.6206C152.248 55.4382 151.356 56.1689 150.167 56.8131C148.977 57.4324 147.776 57.7421 146.562 57.7421C144.134 57.7421 142.4 57.1476 141.36 55.9584C140.344 54.7446 139.836 52.7255 139.836 49.9013V39.5706L138.089 39.0876V36.7093L145.076 36.2262H145.113L145.93 36.7464V50.0499C145.93 51.6603 146.129 52.7873 146.525 53.4315C146.921 54.0508 147.627 54.3605 148.643 54.3605C150.03 54.3605 151.195 53.8899 152.136 52.9484V39.5706L149.832 39.0132V36.7093L157.19 36.2262H157.301L158.193 36.7464V54.7693H160.163V57.1476C159.32 57.3209 158.54 57.4573 157.822 57.5563C157.128 57.6553 156.31 57.705 155.369 57.705ZM172.112 57.7421C168.718 57.7421 166.203 56.7884 164.568 54.8808C162.933 52.9484 162.116 50.3225 162.116 47.0027C162.116 44.7484 162.537 42.8036 163.379 41.1685C164.221 39.5335 165.398 38.2947 166.909 37.4525C168.446 36.5853 170.241 36.1519 172.298 36.1519C174.899 36.1519 176.881 36.8083 178.243 38.1214C179.631 39.4345 180.349 41.2925 180.399 43.6955C180.399 45.2809 180.287 46.5568 180.064 47.523H168.433C168.557 49.6287 169.065 51.239 169.957 52.3539C170.873 53.444 172.149 53.9889 173.784 53.9889C174.701 53.9889 175.655 53.8403 176.646 53.543C177.661 53.221 178.479 52.8616 179.098 52.4653L180.139 54.7321C179.494 55.4506 178.392 56.1317 176.831 56.776C175.295 57.4202 173.722 57.7421 172.112 57.7421ZM174.49 45.0704L174.527 43.5097C174.527 41.9489 174.317 40.7598 173.896 39.9422C173.474 39.1247 172.756 38.716 171.74 38.716C170.7 38.716 169.895 39.1744 169.325 40.0909C168.755 40.9827 168.446 42.6425 168.396 45.0704H174.49ZM187.746 54.249C187.919 54.5216 188.315 54.7693 188.935 54.9922C189.579 55.2152 190.223 55.3267 190.867 55.3267C191.883 55.3267 192.651 55.1162 193.171 54.695C193.716 54.249 193.989 53.6792 193.989 52.9856C193.989 52.2424 193.642 51.6353 192.948 51.1647C192.255 50.6692 191.115 50.0746 189.529 49.381L188.117 48.7493C186.507 48.0308 185.293 47.1639 184.475 46.1481C183.683 45.1076 183.286 43.7945 183.286 42.209C183.286 41.0695 183.621 40.0537 184.29 39.1619C184.959 38.2453 185.925 37.5268 187.188 37.0066C188.452 36.4863 189.938 36.2262 191.647 36.2262C192.837 36.2262 193.865 36.3005 194.732 36.4492C195.599 36.5978 196.478 36.7836 197.37 37.0066C197.965 37.1799 198.411 37.2792 198.708 37.3039V42.3577H195.401L194.434 39.4963C194.311 39.2734 194.014 39.0751 193.543 38.9018C193.072 38.7035 192.539 38.6045 191.945 38.6045C191.004 38.6045 190.26 38.815 189.715 39.2362C189.17 39.6325 188.898 40.1777 188.898 40.8713C188.898 41.6641 189.207 42.2958 189.827 42.7664C190.446 43.2124 191.437 43.7451 192.799 44.3643L193.58 44.6988C195.586 45.541 197.16 46.4578 198.299 47.4487C199.439 48.4148 200.009 49.7526 200.009 51.462C200.009 53.2953 199.278 54.8064 197.816 55.9956C196.355 57.16 194.199 57.7421 191.35 57.7421C190.037 57.7421 188.873 57.6306 187.857 57.4077C186.842 57.2094 185.727 56.9371 184.513 56.5901L183.286 56.2557V51.3134H186.817L187.746 54.249Z" fill="#EDC949"/>
</g>
</g>
</g>
<g filter="url(#filter3_d_1749_65)">
<path d="M3.16526 64.5297C4.40279 64.4536 6.025 64.535 7.25783 64.6465C7.64422 64.6813 7.44857 64.836 7.71527 64.8668C8.23693 64.9271 8.72291 64.8512 9.2384 64.9228C9.40924 64.9473 9.1966 65.1925 9.37574 65.2127C10.3574 65.321 11.286 65.2586 12.2804 65.3106C17.1786 65.5678 21.9934 65.6597 26.9515 65.7714C28.5863 65.8081 30.5736 66.0305 32.2622 65.9333C32.4595 65.9217 32.3419 65.7064 32.3793 65.6889C32.9675 65.4173 32.7719 65.8516 33.156 65.9095C34.6803 66.1372 36.3756 66.1571 37.8424 66.074C38.4667 66.0382 37.8408 65.6106 38.4694 65.8505C38.5129 65.8667 38.3547 66.0953 38.5257 66.1197C38.914 66.1744 39.6503 66.1337 39.9513 66.1518C40.531 66.1879 40.6268 66.1855 41.1752 66.1882C41.9248 66.1937 42.8166 66.3073 43.6209 66.2556C43.7926 66.2436 43.5651 66.0095 43.8391 65.9697C44.113 65.9299 44.8382 65.9498 45.0824 66.005C45.3268 66.0602 45.2228 66.2442 45.266 66.2864C45.622 66.6426 46.4607 66.1494 46.5685 66.1372C48.5359 65.9294 50.223 66.2102 52.0696 66.2094C53.4716 66.2083 54.9705 66.1154 56.3046 66.1282C57.8937 66.1444 59.2408 66.2712 60.7845 66.2495C60.9475 66.2473 60.7566 65.9718 60.9557 65.9689C63.0699 65.9368 65.1695 65.9668 67.2749 66.1529C67.4859 66.1717 67.2138 66.4135 67.4248 66.447C68.7162 66.6455 70.7595 67.123 71.5266 66.07C72.4014 66.1112 73.4634 66.1537 74.2459 66.366C74.7505 66.5024 74.2605 66.766 74.8803 66.6535C75.0202 66.6285 74.8384 66.3979 75.048 66.3777C75.9306 66.2933 76.8949 66.3681 77.7682 66.2489C77.9458 66.2243 77.8972 66.0175 77.9476 65.9803C78.3705 65.6788 79.0746 66.1773 79.2281 66.2134C80.397 66.4833 81.2504 66.3771 82.3392 66.3838C82.5919 66.3854 82.2933 66.1077 82.5364 66.0992C83.7975 66.0594 85.1037 66.0833 86.3382 66.2067C86.6129 66.2346 86.3605 66.4711 86.4916 66.4969C87.0703 66.6065 87.1987 66.1598 87.7535 66.2561C87.8705 66.276 87.8047 66.4785 87.8259 66.5006C88.1601 66.8499 88.4502 66.3551 88.5362 66.3442C89.6229 66.1951 90.3178 66.7113 91.3676 66.6383C91.4931 66.629 91.2099 66.3729 91.563 66.3623C93.9152 66.2917 96.4031 66.362 98.7315 66.5669C99.0933 66.5985 98.835 66.791 98.8578 66.8146C99.2289 67.1854 99.4694 66.6888 99.5872 66.6699C100.519 66.5353 101.388 66.9518 102.021 66.3602C105.965 66.5656 109.891 66.2333 113.802 66.7633C113.852 66.7695 113.762 67.0142 113.862 67.0253C115.056 67.1626 114.827 66.7825 115.617 66.3174C115.816 66.2006 116.422 66.762 116.476 66.8032C116.671 66.955 116.468 67.3189 116.534 67.3481C117.075 67.5788 116.987 66.3753 117.717 66.3748C117.739 66.3769 117.644 66.5985 117.705 66.6205C117.895 66.6896 118.084 66.6014 118.27 66.6779C118.696 66.8544 118.848 67.4391 119.499 67.0989C119.581 67.0545 119.456 66.3718 120.108 66.404C120.367 66.4175 121.517 66.4058 121.839 66.4501C122.161 66.4942 121.94 66.7142 121.963 66.7238C122.831 67.0147 122.502 67.1352 122.936 67.566C123.371 67.995 123.25 66.9717 123.428 66.8573C123.605 66.7434 124.241 66.9837 124.397 67.067C124.553 67.1506 124.358 67.2902 124.497 67.3375C125.418 67.6462 124.901 66.8294 125.205 66.667C125.92 66.2824 126.478 67.0415 127.132 67.1158C127.31 67.136 127.165 66.963 127.323 66.947C127.948 66.8852 128.324 67.1219 129.035 66.9048C129.151 66.8695 129.726 66.4132 130.098 66.748C130.151 66.7963 130.001 66.9855 130.267 67.0277C130.665 67.0914 131.382 67.1328 131.81 67.0694C132.125 67.0227 131.763 66.7111 132.161 66.8079C132.338 66.8512 132.01 67.0336 132.342 67.0994C132.672 67.1655 133.516 67.1575 133.838 67.1511C134.158 67.1448 133.982 66.9083 134.008 66.8923C134.165 66.801 134.781 66.6872 134.835 66.6874C137.577 66.6585 140.106 67.0569 142.776 66.9253C142.986 66.9152 142.847 66.6659 142.878 66.6617C143.596 66.5574 143.03 67.2202 143.531 67.4421C143.459 66.9361 143.755 67.0277 144.26 66.9722C144.504 66.9452 144.371 66.7493 144.393 66.7291C144.754 66.4316 145.006 66.8159 145.071 66.8945C145.31 67.1838 145.57 66.8419 145.733 67.0354C145.895 67.2271 145.521 67.5116 146.006 67.5079C146.142 67.3269 145.782 66.8536 146.15 66.7769C147.538 66.4868 150.129 66.8581 151.246 66.8966C152.36 66.9351 152.719 66.9019 153.369 66.9672C154.541 67.0856 154.111 66.7344 154.839 66.5738C155.57 66.413 155.215 67.277 155.319 67.4628C155.423 67.6483 155.535 67.4572 155.663 67.5591C155.791 67.6613 155.515 67.7874 155.815 67.8259C156.116 67.8641 156.938 67.5339 157.044 67.3396C157.269 66.9282 156.899 66.4966 157.694 66.6482C157.74 66.6572 157.592 66.8844 157.767 66.9072C159.158 67.0821 160.604 67.093 161.994 67.2478C162.185 67.2693 162.014 67.522 162.125 67.5373C163.283 67.699 162.869 67.273 163.504 66.7997C163.361 67.4296 163.712 67.815 164.592 67.8187C165.12 67.8211 165.029 67.5461 165.371 67.3521C165.473 67.2937 165.847 67.4827 165.915 67.3531C166.139 66.9303 165.786 66.4568 166.692 66.6455C166.732 66.6543 166.606 66.8857 166.743 66.8998C167.631 66.9916 167.737 66.5491 168.698 66.4958C169.45 66.4536 170.788 66.7233 171.645 66.7673C171.627 67.4755 172.436 67.3133 172.765 66.8249C173.321 66.8451 173.921 66.8175 174.459 66.8849C174.644 66.908 174.522 67.1129 174.546 67.1352C174.903 67.4827 175.145 67.0075 175.265 66.989C176.566 66.8079 177.626 67.1679 178.867 66.8162C178.912 66.8034 178.983 66.3116 179.315 66.6707C179.336 66.6954 178.926 66.9192 179.51 66.9367C180.094 66.9539 181.195 67.2175 182.006 66.9898C182.203 66.9348 182.699 66.5353 183.097 66.8475C183.15 66.89 183.092 67.0309 183.169 67.1095C183.417 67.3595 183.552 66.8624 183.843 67.2847C184.134 67.7072 184.739 68.0236 185.557 67.7322C185.583 67.7237 185.777 67.3295 186.034 67.3356C186.445 67.346 187.027 67.4283 187.456 67.4256C187.661 67.4243 187.53 67.1795 187.566 67.175C188.945 67.0378 189.928 67.256 191.406 67.3508C191.677 67.3685 192.456 67.0349 192.981 67.2987C193.557 67.5875 192.965 68.7889 194.289 68.5027C194.823 68.3881 195.499 66.8639 196.459 67.6536C198.321 67.458 200.042 67.8622 201.909 67.5827C201.993 67.5703 202.258 67.145 202.456 67.1509C202.749 67.1602 202.91 67.359 203.119 67.372C203.995 67.432 204.797 67.2618 205.642 67.2884C205.963 67.2979 205.851 67.5036 206.234 67.5151C206.617 67.5262 206.871 67.2557 207.39 67.3863C207.781 67.4861 208.173 68.0393 208.692 68.1038C208.712 67.5581 209.069 67.5692 209.703 67.4253C209.825 67.3972 209.694 67.2074 209.752 67.1843C209.987 67.0864 210.204 67.2438 210.427 67.1373C210.481 67.1116 210.483 66.9253 210.528 66.8937C210.905 66.6192 211.526 67.0386 211.632 67.1116C212.041 67.3887 212.232 67.1464 212.546 67.2555C212.859 67.3648 212.391 67.5013 212.756 67.5673C213.514 67.7043 214.488 67.6743 215.257 67.6828C215.564 67.6852 215.355 67.4365 215.399 67.4309C216.034 67.3677 216.676 67.6324 217.028 67.1368C217.468 68.4183 217.411 67.0126 218.319 67.269C218.39 67.29 218.481 67.8959 218.207 67.9849C217.932 68.0738 217.516 67.8843 217.135 68.0228C217.045 68.0555 216.528 68.6232 216.458 68.6577C215.906 68.9266 215.827 68.021 215.798 67.9713C215.467 67.4346 214.835 68.0462 214.669 68.0884C213.909 68.2822 213.263 68.1547 212.627 68.293C212.21 68.3825 212.17 68.9755 211.843 68.9574C210.757 68.8974 210.378 68.0701 209.354 68.7875C209.135 68.9404 209.353 69.5889 208.567 69.079C208.517 69.0469 207.933 68.5805 207.596 68.8754C207.554 68.9126 207.555 69.1015 207.499 69.1175C207.125 69.2202 206.875 69.0697 206.467 69.1416C206.059 69.2138 205.569 69.3213 205.103 69.2571C204.823 69.2189 204.463 68.8669 204.328 68.7806C203.949 68.5325 203.542 68.9394 203.307 68.6389C203.07 68.3366 203.534 67.8779 202.912 67.6825C202.889 68.1733 202.836 68.6774 202.799 69.1708C201.438 69.1536 200.098 68.9948 198.731 69.0166C198.562 69.0198 198.735 69.2836 198.554 69.294C197.787 69.3359 197.118 69.1477 196.324 69.2226C195.708 69.2815 195.034 69.561 194.391 69.6313C193.998 69.0697 193.044 69.2603 192.351 69.209C192.108 69.1913 192.124 69.0413 191.951 68.9924C191.3 68.8114 191.605 69.3078 191.426 69.3858C190.66 69.7192 190.595 68.5956 189.691 68.6235C189.643 68.6246 189.058 69.2234 188.978 69.2608C188.466 69.5039 188.893 69.0522 188.572 69.0081C187.987 68.9272 187.581 68.7841 186.894 68.9595C186.694 69.0116 186.214 69.3848 185.825 69.096C185.774 69.0583 185.802 68.8603 185.761 68.8489C185.016 68.6556 184.996 69.2775 184.571 69.488C184.145 69.6988 183.487 69.2693 183.353 69.1456C183.003 68.8255 183.622 69.0089 183.641 68.9773C183.864 68.6036 183.384 68.6678 183.017 68.6362C182.964 68.0265 182.452 68.0632 182.637 68.606C182.658 68.6654 182.944 68.6084 183.017 68.6362C182.696 69.2348 182.132 69.3112 181.51 68.7522C181.219 68.49 181.494 68.1845 180.61 68.2962C180.208 68.3467 180.363 68.7666 180.009 68.8812C179.199 69.1424 178.148 68.7506 177.313 68.8125C177.01 68.8348 177.305 69.0646 177.098 69.088C176.549 69.1504 176.065 68.9779 175.513 69.0662C175.463 69.0745 175.585 69.315 175.413 69.3181C174.113 69.346 172.98 69.1921 171.623 69.1878C170.966 69.1857 169.793 69.3184 169.114 69.2919C167.936 69.247 166.487 68.8972 165.48 68.9821C164.824 69.0365 164.968 69.277 164.687 69.441C164.144 69.759 163.183 69.1897 163.054 69.1015C163.05 69.0986 163.615 69.0418 163.313 68.9181C163.138 68.6609 163.061 69.1002 163.054 69.1015C162.969 69.0445 161.841 68.9898 161.617 69.0357C161.495 69.0609 161.563 69.2889 161.5 69.2977C159.991 69.5018 158.48 69.5599 156.95 69.4532C156.923 69.4487 156.963 69.1936 156.9 69.1859C156.014 69.0726 155.447 69.3845 154.716 69.5698C153.986 69.755 153.407 69.6929 152.974 69.255C152.423 69.3102 151.632 69.1167 151.177 68.9991C150.722 68.8818 150.659 69.3781 150.619 69.3879C149.37 69.7022 148.648 69.4179 147.353 69.3736C146.737 69.3518 145.515 69.4238 144.848 69.4782C144.321 69.522 144.004 69.4055 143.518 69.48C143.452 69.4899 143.519 69.711 143.498 69.7195C142.956 69.9838 143.217 69.4434 143.105 69.3471C142.7 68.9959 142.449 68.809 141.755 68.9741C141.595 69.0121 141.128 69.7901 140.836 69.8357C140.457 69.8933 140.6 69.6144 140.203 69.682C140.169 69.6876 140.176 69.8596 139.931 69.8519C138.793 69.819 137.552 69.7189 136.369 69.7362C136.207 69.7378 136.415 70.0109 136.181 70.0178C135.086 70.0502 133.885 70.0401 132.818 69.9122C132.555 69.8801 132.72 69.6889 132.663 69.6321C132.313 69.2889 131.817 69.7877 131.735 69.7972C129.781 70.0369 128.286 69.5854 126.294 69.8004C126.186 69.8129 125.351 70.3477 124.979 69.8891C124.954 69.8586 124.585 69.3893 124.26 69.7102C124.24 69.7303 124.469 69.9719 124.069 69.9472C123.668 69.9225 123.024 70.0839 122.473 69.8185C122.299 69.7349 121.887 69.2669 121.367 69.6398C121.333 69.6661 120.53 70.5097 120.244 69.9276C120.198 69.8317 120.246 69.2157 119.626 69.5315C119.507 69.5929 119.722 69.7304 119.41 69.8161C118.931 69.9483 118.297 69.7832 117.709 70.0576C117.606 70.1062 117.17 70.5243 116.819 70.2071C116.764 70.1574 116.869 69.9517 116.684 69.9286C115.804 69.8182 114.883 69.9557 113.99 69.8134C113.673 69.7635 113.835 69.4312 113.505 69.342C113.175 69.2528 112.511 69.1674 112.166 69.3192C111.82 69.4713 112.198 70.0011 111.681 70.0436C109.432 70.2275 107.205 69.9167 104.96 69.8713C104.628 69.8644 104.903 70.0542 104.413 70.0576C102.604 70.0717 99.4805 70.2495 97.9108 69.8466C96.6532 69.5241 98.2359 69.2783 97.2748 69.1469C96.8111 69.0843 96.3094 69.7004 96.1974 69.7197C95.1036 69.9167 94.3436 69.6438 93.3591 69.7277C93.1558 69.745 93.3552 69.9947 93.1824 70.0067C92.5912 70.0499 91.9701 69.9385 91.4056 69.9589C91.1523 69.9687 91.1988 70.1593 90.9657 70.1447C90.4081 70.1115 89.9149 70.0313 89.371 69.8527C89.3214 69.8365 89.6556 69.5992 89.2431 69.5905C88.5753 69.5769 87.7461 69.4004 86.9776 69.5825C86.7496 69.6375 86.7409 70.0733 86.2506 69.7723C86.1479 69.7094 86.279 69.1859 85.7081 69.6382C85.6122 69.7134 84.6532 70.3233 84.1824 69.9302C84.0584 69.8267 83.7415 69.3983 83.4673 69.4657C83.4301 69.4763 83.579 69.7104 83.3518 69.7333C82.5513 69.8097 81.712 69.7848 80.8894 69.858C80.6696 69.8782 80.9969 70.1203 80.6696 70.1426C79.7693 70.2036 78.6452 70.142 77.7647 70.0661C77.4401 70.0377 77.6647 69.8371 77.641 69.8153C77.2612 69.4601 77.0367 69.9395 76.9106 69.9674C76.1265 70.1349 75.5295 69.9098 74.807 69.9692C74.6077 69.9852 74.7489 70.2137 74.7094 70.2341C74.2977 70.4332 74.6042 70.0229 74.3436 69.9775C73.6136 69.8493 72.7998 69.8678 72.0614 69.897C71.7904 69.9079 72.0951 70.1731 71.8517 70.18C70.4112 70.2256 68.9139 70.2002 67.5082 70.0542C67.2435 70.026 67.41 69.8219 67.3548 69.7755C66.9747 69.4493 66.4173 69.8941 66.289 69.9366C65.7062 70.1301 65.4798 69.9496 64.9648 69.9833C62.4496 70.1511 59.3443 70.0314 56.97 69.9576C53.8764 69.8625 51.4758 69.6682 48.5255 69.7187C48.3379 69.7216 48.5271 69.9931 48.3655 69.9992C46.2787 70.0648 44.2242 69.9586 42.1331 70.0369C41.9614 70.043 42.2088 70.3005 41.9335 70.3185C41.3684 70.3578 40.6528 70.3438 40.0816 70.2615C39.8032 70.2219 40.1769 70.0011 39.8963 69.9658C39.2434 69.883 38.5434 69.8647 37.873 69.9058C37.5873 69.9238 38.0181 70.1872 37.6471 70.1903C35.1202 70.2164 32.6381 70.2617 30.0846 69.9209C29.9095 69.8973 29.7558 69.3625 29.3836 69.4649C29.3555 69.6136 29.3571 69.7882 29.3449 69.9469C25.6661 70.0324 22.025 69.8469 18.3359 69.8182C18.1804 69.8171 18.4492 70.1006 18.148 70.0998C16.4051 70.0956 14.7127 70.1742 12.93 69.8923C12.7531 69.8647 12.8438 69.3659 12.3226 69.4416C12.2306 69.4551 11.4455 69.5217 11.2426 69.63C11.215 69.6462 11.3582 69.879 11.1052 69.8859C9.63509 69.9212 8.09447 69.8681 6.62684 69.7258C6.39 69.7025 6.64224 69.4546 6.47353 69.4357C5.27683 69.3041 3.97518 69.4925 2.83167 69.2674C2.06625 69.1159 2.34963 68.6875 1.9429 68.2657C1.88537 68.2062 1.4114 68.1967 1.38689 67.9512C1.32396 67.334 1.55354 66.6585 1.45934 66.0005C1.43944 65.859 0.80467 66.0116 1.18049 65.6692C1.20675 65.6461 1.66696 65.5325 1.78031 65.4165C1.85923 65.3361 1.71701 65.0866 1.87803 64.9839C2.03904 64.8812 2.21596 65.0903 2.4829 64.9696C2.74973 64.8472 2.6324 64.5632 3.16526 64.5297ZM149.129 68.4741C148.707 68.2357 148.645 69.109 149.101 68.9001C149.123 68.8889 149.15 68.4857 149.129 68.4741ZM200.105 68.3363C199.555 67.9512 199.178 68.5173 199.566 68.8149C199.955 69.1122 200.273 68.4531 200.105 68.3363ZM205.817 68.0549C205.173 67.7513 205.072 68.9895 205.761 68.7392C205.801 68.7252 205.855 68.0727 205.817 68.0549ZM3.82911 68.1455C3.8233 68.134 3.48259 68.1226 3.47444 68.134C3.29302 68.4114 3.9743 68.434 3.82911 68.1455ZM211.485 67.7489C211.284 67.5814 210.705 67.7746 210.955 67.983C211.156 68.1505 211.735 67.9573 211.485 67.7489ZM127.15 67.5421C127.144 67.5291 126.899 67.5174 126.904 67.591C126.921 67.8277 127.261 67.7611 127.15 67.5421ZM221.118 67.7346C219.695 67.6879 218.832 66.6651 220.382 66.7803C220.662 66.8013 219.777 67.1066 220.134 67.1989C220.788 67.3669 221.222 66.7246 221.889 67.0689C222.01 67.1318 221.199 67.7396 221.116 67.7359C221.116 67.7356 221.117 67.7351 221.118 67.7346ZM148.886 67.4253C148.877 67.4137 148.539 67.4028 148.531 67.4142C148.348 67.6913 149.029 67.7136 148.886 67.4253ZM112.897 67.0022C112.878 66.9776 112.094 66.9545 112.068 66.9773C111.659 67.4306 113.245 67.4784 112.897 67.0022ZM171.659 66.7862C172.028 66.5072 172.469 66.4743 172.763 66.8247C172.396 66.8061 172.027 66.8034 171.659 66.7862Z" fill="#FAFAFA" fill-opacity="0.83"/>
</g>
<g filter="url(#filter4_n_1749_65)">
<g filter="url(#filter5_d_1749_65)">
<g filter="url(#filter6_i_1749_65)">
<path d="M208.336 7.53862L218.049 7.51953L218.076 26.9278L237.502 26.8956L232.655 30.9939L218.095 35.1081L218.164 65.7968L213.336 80.3757L208.451 65.816L208.382 35.124L193.803 31.0582L188.938 26.9761L208.363 26.944" fill="#EDC949"/>
</g>
</g>
</g>
</g>
<defs>
<filter id="filter0_n_1749_65" x="7.67102" y="29.3887" width="192.338" height="34.8945" filterUnits="userSpaceOnUse" color-interpolation-filters="sRGB">
<feFlood flood-opacity="0" result="BackgroundImageFix"/>
<feBlend mode="normal" in="SourceGraphic" in2="BackgroundImageFix" result="shape"/>
<feTurbulence type="fractalNoise" baseFrequency="3.3333332538604736 3.3333332538604736" stitchTiles="stitch" numOctaves="3" result="noise" seed="4003" />
<feColorMatrix in="noise" type="luminanceToAlpha" result="alphaNoise" />
<feComponentTransfer in="alphaNoise" result="coloredNoise1">
<feFuncA type="discrete" tableValues="0 0 0 0 0 0 0 0 0 0 0 0 1 1 1 1 1 1 1 1 1 1 1 1 1 1 1 1 1 1 1 1 1 1 1 1 1 0 0 0 0 0 0 0 0 0 0 0 0 0 0 0 0 0 0 0 0 0 0 0 0 0 0 0 0 0 0 0 0 0 0 0 0 0 0 0 0 0 0 0 0 0 0 0 0 0 0 0 0 0 0 0 0 0 0 0 0 0 0 0 "/>
</feComponentTransfer>
<feComposite operator="in" in2="shape" in="coloredNoise1" result="noise1Clipped" />
<feFlood flood-color="rgba(0, 0, 0, 0.25)" result="color1Flood" />
<feComposite operator="in" in2="noise1Clipped" in="color1Flood" result="color1" />
<feMerge result="effect1_noise_1749_65">
<feMergeNode in="shape" />
<feMergeNode in="color1" />
</feMerge>
</filter>
<filter id="filter1_d_1749_65" x="4.17102" y="28.0887" width="199.338" height="41.8945" filterUnits="userSpaceOnUse" color-interpolation-filters="sRGB">
<feFlood flood-opacity="0" result="BackgroundImageFix"/>
<feColorMatrix in="SourceAlpha" type="matrix" values="0 0 0 0 0 0 0 0 0 0 0 0 0 0 0 0 0 0 127 0" result="hardAlpha"/>
<feOffset dy="2.2"/>
<feGaussianBlur stdDeviation="1.75"/>
<feComposite in2="hardAlpha" operator="out"/>
<feColorMatrix type="matrix" values="0 0 0 0 0 0 0 0 0 0 0 0 0 0 0 0 0 0 0.8 0"/>
<feBlend mode="normal" in2="BackgroundImageFix" result="effect1_dropShadow_1749_65"/>
<feBlend mode="normal" in="SourceGraphic" in2="effect1_dropShadow_1749_65" result="shape"/>
</filter>
<filter id="filter2_i_1749_65" x="7.67102" y="29.3887" width="192.338" height="36.3945" filterUnits="userSpaceOnUse" color-interpolation-filters="sRGB">
<feFlood flood-opacity="0" result="BackgroundImageFix"/>
<feBlend mode="normal" in="SourceGraphic" in2="BackgroundImageFix" result="shape"/>
<feColorMatrix in="SourceAlpha" type="matrix" values="0 0 0 0 0 0 0 0 0 0 0 0 0 0 0 0 0 0 127 0" result="hardAlpha"/>
<feOffset dy="1.5"/>
<feGaussianBlur stdDeviation="1.25"/>
<feComposite in2="hardAlpha" operator="arithmetic" k2="-1" k3="1"/>
<feColorMatrix type="matrix" values="0 0 0 0 0.545098 0 0 0 0 0.368627 0 0 0 0 0.235294 0 0 0 0.66 0"/>
<feBlend mode="normal" in2="shape" result="effect1_innerShadow_1749_65"/>
</filter>
<filter id="filter3_d_1749_65" x="-2.93823" y="64.5" width="228.839" height="13.8398" filterUnits="userSpaceOnUse" color-interpolation-filters="sRGB">
<feFlood flood-opacity="0" result="BackgroundImageFix"/>
<feColorMatrix in="SourceAlpha" type="matrix" values="0 0 0 0 0 0 0 0 0 0 0 0 0 0 0 0 0 0 127 0" result="hardAlpha"/>
<feOffset dy="4"/>
<feGaussianBlur stdDeviation="2"/>
<feComposite in2="hardAlpha" operator="out"/>
<feColorMatrix type="matrix" values="0 0 0 0 0 0 0 0 0 0 0 0 0 0 0 0 0 0 0.7 0"/>
<feBlend mode="normal" in2="BackgroundImageFix" result="effect1_dropShadow_1749_65"/>
<feBlend mode="normal" in="SourceGraphic" in2="effect1_dropShadow_1749_65" result="shape"/>
</filter>
<filter id="filter4_n_1749_65" x="188.938" y="7.51953" width="48.5642" height="72.8555" filterUnits="userSpaceOnUse" color-interpolation-filters="sRGB">
<feFlood flood-opacity="0" result="BackgroundImageFix"/>
<feBlend mode="normal" in="SourceGraphic" in2="BackgroundImageFix" result="shape"/>
<feTurbulence type="fractalNoise" baseFrequency="3.3333332538604736 3.3333332538604736" stitchTiles="stitch" numOctaves="3" result="noise" seed="3874" />
<feColorMatrix in="noise" type="luminanceToAlpha" result="alphaNoise" />
<feComponentTransfer in="alphaNoise" result="coloredNoise1">
<feFuncA type="discrete" tableValues="0 0 0 0 0 0 0 0 0 0 0 0 0 0 1 1 1 1 1 1 1 1 1 1 1 1 1 1 1 1 1 1 1 1 1 1 1 0 0 0 0 0 0 0 0 0 0 0 0 0 0 0 0 0 0 0 0 0 0 0 0 0 0 0 0 0 0 0 0 0 0 0 0 0 0 0 0 0 0 0 0 0 0 0 0 0 0 0 0 0 0 0 0 0 0 0 0 0 0 0 "/>
</feComponentTransfer>
<feComposite operator="in" in2="shape" in="coloredNoise1" result="noise1Clipped" />
<feFlood flood-color="rgba(0, 0, 0, 0.25)" result="color1Flood" />
<feComposite operator="in" in2="noise1Clipped" in="color1Flood" result="color1" />
<feMerge result="effect1_noise_1749_65">
<feMergeNode in="shape" />
<feMergeNode in="color1" />
</feMerge>
</filter>
<filter id="filter5_d_1749_65" x="184.438" y="6.01953" width="57.5642" height="81.8555" filterUnits="userSpaceOnUse" color-interpolation-filters="sRGB">
<feFlood flood-opacity="0" result="BackgroundImageFix"/>
<feColorMatrix in="SourceAlpha" type="matrix" values="0 0 0 0 0 0 0 0 0 0 0 0 0 0 0 0 0 0 127 0" result="hardAlpha"/>
<feOffset dy="3"/>
<feGaussianBlur stdDeviation="2.25"/>
<feComposite in2="hardAlpha" operator="out"/>
<feColorMatrix type="matrix" values="0 0 0 0 0 0 0 0 0 0 0 0 0 0 0 0 0 0 0.8 0"/>
<feBlend mode="normal" in2="BackgroundImageFix" result="effect1_dropShadow_1749_65"/>
<feBlend mode="normal" in="SourceGraphic" in2="effect1_dropShadow_1749_65" result="shape"/>
</filter>
<filter id="filter6_i_1749_65" x="188.938" y="7.51953" width="48.5642" height="74.3555" filterUnits="userSpaceOnUse" color-interpolation-filters="sRGB">
<feFlood flood-opacity="0" result="BackgroundImageFix"/>
<feBlend mode="normal" in="SourceGraphic" in2="BackgroundImageFix" result="shape"/>
<feColorMatrix in="SourceAlpha" type="matrix" values="0 0 0 0 0 0 0 0 0 0 0 0 0 0 0 0 0 0 127 0" result="hardAlpha"/>
<feOffset dy="1.5"/>
<feGaussianBlur stdDeviation="2"/>
<feComposite in2="hardAlpha" operator="arithmetic" k2="-1" k3="1"/>
<feColorMatrix type="matrix" values="0 0 0 0 0.545098 0 0 0 0 0.368627 0 0 0 0 0.235294 0 0 0 1 0"/>
<feBlend mode="normal" in2="shape" result="effect1_innerShadow_1749_65"/>
</filter>
<clipPath id="clip0_1749_65">
<rect width="254.815" height="86" fill="white"/>
</clipPath>
</defs>
</svg>
